<svg width="20" height="20" xmlns="http://www.w3.org/2000/svg"><g fill="none"><path d="M-2-2h24v24H-2z"/><path d="M10 20C4.486 20 0 15.514 0 10S4.486 0 10 0s10 4.486 10 10-4.486 10-10 10zm8.434-8.631c-.293-.092-2.644-.794-5.32-.365 1.116 3.07 1.57 5.57 1.658 6.09a8.556 8.556 0 0 0 3.662-5.725zm-5.098 6.507c-.127-.75-.622-3.361-1.822-6.478l-.056.02c-4.818 1.678-6.547 5.02-6.7 5.333A8.499 8.499 0 0 0 10 18.555c1.183 0 2.31-.242 3.336-.68zm-9.682-2.152c.194-.331 2.538-4.212 6.943-5.636.111-.036.224-.07.337-.102a28.642 28.642 0 0 0-.693-1.45C5.976 9.813 1.837 9.76 1.463 9.752a8.508 8.508 0 0 0 2.191 5.972zM1.64 8.264c.382.005 3.901.02 7.896-1.041a54.495 54.495 0 0 0-3.166-4.94 8.573 8.573 0 0 0-4.73 5.98zM8 1.709a45.588 45.588 0 0 1 3.186 5c3.038-1.138 4.324-2.866 4.477-3.085a8.53 8.53 0 0 0-7.664-1.915zm8.613 2.903c-.18.243-1.612 2.078-4.77 3.367a26.34 26.34 0 0 1 .75 1.678c2.843-.357 5.667.216 5.949.275a8.501 8.501 0 0 0-1.93-5.32z" fill="#FFF"/></g></svg>