<?xml version="1.0" encoding="utf-8"?>
<!-- Generator: Adobe Illustrator 21.0.0, SVG Export Plug-In . SVG Version: 6.00 Build 0)  -->
<svg version="1.1" id="Capa_1" xmlns="http://www.w3.org/2000/svg" xmlns:xlink="http://www.w3.org/1999/xlink" x="0px" y="0px"
	 viewBox="0 0 483.9 364" style="enable-background:new 0 0 483.9 364;" xml:space="preserve">
<g>
	<path d="M483.9,51.3h-26.7c-7,0-25.1,7.6-25.1,14v233.5c0,6.4,18.2,11.7,25.1,11.7h26.7v51.8H311.1v-51.8h34.6V68.6h-6l-83.2,293.7
		H192L109.9,68.6h-6.2v241.9h34.6v51.8H0v-51.8h19.2c7.5,0,15.4-5.3,15.4-11.7V65.3c0-6.4-7.9-14-15.4-14H0V-0.5h179.2l58.5,207.3
		h1.6L298.3-0.5h185.6V51.3z"/>
</g>
</svg>
